<?xml version="1.0" encoding="UTF-8" standalone="no"?>
<!DOCTYPE svg PUBLIC "-//W3C//DTD SVG 1.1//EN"
 "http://www.w3.org/Graphics/SVG/1.1/DTD/svg11.dtd">
<!-- Generated by graphviz version 2.38.0 (20140413.2041)
 -->
<!-- Title: InfoObject Pages: 1 -->
<svg width="200pt" height="281pt"
 viewBox="0.00 0.00 199.50 281.00" xmlns="http://www.w3.org/2000/svg" xmlns:xlink="http://www.w3.org/1999/xlink">
<g id="graph0" class="graph" transform="scale(1 1) rotate(0) translate(4 277)">
<title>InfoObject</title>
<polygon fill="white" stroke="none" points="-4,4 -4,-277 195.5,-277 195.5,4 -4,4"/>
<!-- Node1 -->
<g id="node1" class="node"><title>Node1</title>
<g id="a_node1"><a xlink:title=" ">
<polygon fill="#bfbfbf" stroke="black" points="44.5,-0.5 44.5,-112.5 142.5,-112.5 142.5,-0.5 44.5,-0.5"/>
<text text-anchor="middle" x="93.5" y="-100.5" font-family="Helvetica,sans-Serif" font-size="10.00">InfoObject</text>
<polyline fill="none" stroke="black" points="44.5,-93.5 142.5,-93.5 "/>
<text text-anchor="start" x="52.5" y="-81.5" font-family="Helvetica,sans-Serif" font-size="10.00">&#45; signalBus</text>
<polyline fill="none" stroke="black" points="44.5,-74.5 142.5,-74.5 "/>
<text text-anchor="start" x="52.5" y="-62.5" font-family="Helvetica,sans-Serif" font-size="10.00">+ InitInfoID()</text>
<text text-anchor="start" x="52.5" y="-51.5" font-family="Helvetica,sans-Serif" font-size="10.00">+ GetInfo()</text>
<text text-anchor="start" x="52.5" y="-40.5" font-family="Helvetica,sans-Serif" font-size="10.00">+ FireAll()</text>
<text text-anchor="start" x="52.5" y="-29.5" font-family="Helvetica,sans-Serif" font-size="10.00">&#45; Construct()</text>
<text text-anchor="start" x="52.5" y="-18.5" font-family="Helvetica,sans-Serif" font-size="10.00">&#45; Awake()</text>
<text text-anchor="start" x="52.5" y="-7.5" font-family="Helvetica,sans-Serif" font-size="10.00">&#45; OnStateChange()</text>
</a>
</g>
</g>
<!-- Node2 -->
<g id="node2" class="node"><title>Node2</title>
<g id="a_node2"><a xlink:title=" ">
<polygon fill="white" stroke="#bfbfbf" points="0,-188 0,-245 83,-245 83,-188 0,-188"/>
<text text-anchor="middle" x="41.5" y="-233" font-family="Helvetica,sans-Serif" font-size="10.00">MonoBehaviour</text>
<polyline fill="none" stroke="#bfbfbf" points="0,-226 83,-226 "/>
<text text-anchor="middle" x="41.5" y="-214" font-family="Helvetica,sans-Serif" font-size="10.00"> </text>
<polyline fill="none" stroke="#bfbfbf" points="0,-207 83,-207 "/>
<text text-anchor="middle" x="41.5" y="-195" font-family="Helvetica,sans-Serif" font-size="10.00"> </text>
</a>
</g>
</g>
<!-- Node2&#45;&gt;Node1 -->
<g id="edge1" class="edge"><title>Node2&#45;&gt;Node1</title>
<path fill="none" stroke="midnightblue" d="M53.6842,-178.479C60.1476,-158.84 68.2165,-134.323 75.3973,-112.504"/>
<polygon fill="none" stroke="midnightblue" points="50.3594,-177.386 50.5577,-187.979 57.0085,-179.574 50.3594,-177.386"/>
</g>
<!-- Node3 -->
<g id="node3" class="node"><title>Node3</title>
<g id="a_node3"><a xlink:href="../../d3/dd1/interface_i_info.html" target="_top" xlink:title=" ">
<polygon fill="white" stroke="black" points="101.5,-160.5 101.5,-272.5 191.5,-272.5 191.5,-160.5 101.5,-160.5"/>
<text text-anchor="middle" x="146.5" y="-260.5" font-family="Helvetica,sans-Serif" font-size="10.00">IInfo</text>
<polyline fill="none" stroke="black" points="101.5,-253.5 191.5,-253.5 "/>
<text text-anchor="start" x="109.5" y="-241.5" font-family="Helvetica,sans-Serif" font-size="10.00">+ Data</text>
<text text-anchor="start" x="109.5" y="-230.5" font-family="Helvetica,sans-Serif" font-size="10.00">+ StateChanged</text>
<text text-anchor="start" x="109.5" y="-219.5" font-family="Helvetica,sans-Serif" font-size="10.00">+ Id</text>
<text text-anchor="start" x="109.5" y="-208.5" font-family="Helvetica,sans-Serif" font-size="10.00">+ this[string key]</text>
<polyline fill="none" stroke="black" points="101.5,-201.5 191.5,-201.5 "/>
<text text-anchor="start" x="109.5" y="-189.5" font-family="Helvetica,sans-Serif" font-size="10.00">+ Get()</text>
<text text-anchor="start" x="109.5" y="-178.5" font-family="Helvetica,sans-Serif" font-size="10.00">+ Set()</text>
<text text-anchor="start" x="109.5" y="-167.5" font-family="Helvetica,sans-Serif" font-size="10.00">+ Exists()</text>
</a>
</g>
</g>
<!-- Node3&#45;&gt;Node1 -->
<g id="edge2" class="edge"><title>Node3&#45;&gt;Node1</title>
<path fill="none" stroke="#404040" d="M127.963,-160.239C124.05,-148.573 119.881,-136.144 115.844,-124.11"/>
<polygon fill="none" stroke="#404040" points="115.843,-124.107 110.142,-119.69 112.026,-112.73 117.727,-117.146 115.843,-124.107"/>
<text text-anchor="middle" x="133.5" y="-134" font-family="Helvetica,sans-Serif" font-size="10.00"> &#45;info</text>
</g>
</g>
</svg>
