<?xml version="1.0" encoding="UTF-8" standalone="no"?>
<!DOCTYPE svg PUBLIC "-//W3C//DTD SVG 1.1//EN"
 "http://www.w3.org/Graphics/SVG/1.1/DTD/svg11.dtd">
<!-- Generated by graphviz version 2.38.0 (20140413.2041)
 -->
<!-- Title: InfoObjectControl Pages: 1 -->
<svg width="200pt" height="452pt"
 viewBox="0.00 0.00 199.50 452.00" xmlns="http://www.w3.org/2000/svg" xmlns:xlink="http://www.w3.org/1999/xlink">
<g id="graph0" class="graph" transform="scale(1 1) rotate(0) translate(4 448)">
<title>InfoObjectControl</title>
<polygon fill="white" stroke="none" points="-4,4 -4,-448 195.5,-448 195.5,4 -4,4"/>
<!-- Node1 -->
<g id="node1" class="node"><title>Node1</title>
<g id="a_node1"><a xlink:title=" ">
<polygon fill="#bfbfbf" stroke="black" points="21.5,-0.5 21.5,-123.5 115.5,-123.5 115.5,-0.5 21.5,-0.5"/>
<text text-anchor="middle" x="68.5" y="-111.5" font-family="Helvetica,sans-Serif" font-size="10.00">InfoObjectControl</text>
<polyline fill="none" stroke="black" points="21.5,-104.5 115.5,-104.5 "/>
<text text-anchor="start" x="29.5" y="-92.5" font-family="Helvetica,sans-Serif" font-size="10.00">+ InfoObj</text>
<text text-anchor="start" x="29.5" y="-81.5" font-family="Helvetica,sans-Serif" font-size="10.00">&#45; infoObjectPrefab</text>
<text text-anchor="start" x="29.5" y="-70.5" font-family="Helvetica,sans-Serif" font-size="10.00">&#45; objectTag</text>
<text text-anchor="start" x="29.5" y="-59.5" font-family="Helvetica,sans-Serif" font-size="10.00">&#45; createInfoObject</text>
<text text-anchor="start" x="29.5" y="-48.5" font-family="Helvetica,sans-Serif" font-size="10.00">&#45; signalBus</text>
<polyline fill="none" stroke="black" points="21.5,-41.5 115.5,-41.5 "/>
<text text-anchor="start" x="29.5" y="-29.5" font-family="Helvetica,sans-Serif" font-size="10.00">&#45; Construct()</text>
<text text-anchor="start" x="29.5" y="-18.5" font-family="Helvetica,sans-Serif" font-size="10.00">&#45; Awake()</text>
<text text-anchor="start" x="29.5" y="-7.5" font-family="Helvetica,sans-Serif" font-size="10.00">&#45; Start()</text>
</a>
</g>
</g>
<!-- Node2 -->
<g id="node2" class="node"><title>Node2</title>
<g id="a_node2"><a xlink:title=" ">
<polygon fill="white" stroke="#bfbfbf" points="0,-359 0,-416 83,-416 83,-359 0,-359"/>
<text text-anchor="middle" x="41.5" y="-404" font-family="Helvetica,sans-Serif" font-size="10.00">MonoBehaviour</text>
<polyline fill="none" stroke="#bfbfbf" points="0,-397 83,-397 "/>
<text text-anchor="middle" x="41.5" y="-385" font-family="Helvetica,sans-Serif" font-size="10.00"> </text>
<polyline fill="none" stroke="#bfbfbf" points="0,-378 83,-378 "/>
<text text-anchor="middle" x="41.5" y="-366" font-family="Helvetica,sans-Serif" font-size="10.00"> </text>
</a>
</g>
</g>
<!-- Node2&#45;&gt;Node1 -->
<g id="edge1" class="edge"><title>Node2&#45;&gt;Node1</title>
<path fill="none" stroke="midnightblue" d="M44.6415,-348.861C49.2535,-293.601 57.9066,-189.924 63.427,-123.783"/>
<polygon fill="none" stroke="midnightblue" points="41.146,-348.662 43.802,-358.919 48.1217,-349.244 41.146,-348.662"/>
</g>
<!-- Node3 -->
<g id="node3" class="node"><title>Node3</title>
<g id="a_node3"><a xlink:href="../../d8/d49/class_info_object.html" target="_top" xlink:title=" ">
<polygon fill="white" stroke="black" points="69.5,-171.5 69.5,-283.5 167.5,-283.5 167.5,-171.5 69.5,-171.5"/>
<text text-anchor="middle" x="118.5" y="-271.5" font-family="Helvetica,sans-Serif" font-size="10.00">InfoObject</text>
<polyline fill="none" stroke="black" points="69.5,-264.5 167.5,-264.5 "/>
<text text-anchor="start" x="77.5" y="-252.5" font-family="Helvetica,sans-Serif" font-size="10.00">&#45; signalBus</text>
<polyline fill="none" stroke="black" points="69.5,-245.5 167.5,-245.5 "/>
<text text-anchor="start" x="77.5" y="-233.5" font-family="Helvetica,sans-Serif" font-size="10.00">+ InitInfoID()</text>
<text text-anchor="start" x="77.5" y="-222.5" font-family="Helvetica,sans-Serif" font-size="10.00">+ GetInfo()</text>
<text text-anchor="start" x="77.5" y="-211.5" font-family="Helvetica,sans-Serif" font-size="10.00">+ FireAll()</text>
<text text-anchor="start" x="77.5" y="-200.5" font-family="Helvetica,sans-Serif" font-size="10.00">&#45; Construct()</text>
<text text-anchor="start" x="77.5" y="-189.5" font-family="Helvetica,sans-Serif" font-size="10.00">&#45; Awake()</text>
<text text-anchor="start" x="77.5" y="-178.5" font-family="Helvetica,sans-Serif" font-size="10.00">&#45; OnStateChange()</text>
</a>
</g>
</g>
<!-- Node2&#45;&gt;Node3 -->
<g id="edge3" class="edge"><title>Node2&#45;&gt;Node3</title>
<path fill="none" stroke="midnightblue" d="M59.411,-349.748C69.0037,-330.064 81.0124,-305.423 91.6941,-283.504"/>
<polygon fill="none" stroke="midnightblue" points="56.147,-348.456 54.9124,-358.979 62.4396,-351.522 56.147,-348.456"/>
</g>
<!-- Node3&#45;&gt;Node1 -->
<g id="edge2" class="edge"><title>Node3&#45;&gt;Node1</title>
<path fill="none" stroke="#404040" d="M101.572,-171.146C98.0663,-159.682 94.3231,-147.442 90.6622,-135.47"/>
<polygon fill="none" stroke="#404040" points="90.5498,-135.103 84.97,-130.535 87.0404,-123.627 92.6203,-128.195 90.5498,-135.103"/>
<text text-anchor="middle" x="114" y="-145" font-family="Helvetica,sans-Serif" font-size="10.00"> &#45;infoObj</text>
</g>
<!-- Node4 -->
<g id="node4" class="node"><title>Node4</title>
<g id="a_node4"><a xlink:href="../../d3/dd1/interface_i_info.html" target="_top" xlink:title=" ">
<polygon fill="white" stroke="black" points="101.5,-331.5 101.5,-443.5 191.5,-443.5 191.5,-331.5 101.5,-331.5"/>
<text text-anchor="middle" x="146.5" y="-431.5" font-family="Helvetica,sans-Serif" font-size="10.00">IInfo</text>
<polyline fill="none" stroke="black" points="101.5,-424.5 191.5,-424.5 "/>
<text text-anchor="start" x="109.5" y="-412.5" font-family="Helvetica,sans-Serif" font-size="10.00">+ Data</text>
<text text-anchor="start" x="109.5" y="-401.5" font-family="Helvetica,sans-Serif" font-size="10.00">+ StateChanged</text>
<text text-anchor="start" x="109.5" y="-390.5" font-family="Helvetica,sans-Serif" font-size="10.00">+ Id</text>
<text text-anchor="start" x="109.5" y="-379.5" font-family="Helvetica,sans-Serif" font-size="10.00">+ this[string key]</text>
<polyline fill="none" stroke="black" points="101.5,-372.5 191.5,-372.5 "/>
<text text-anchor="start" x="109.5" y="-360.5" font-family="Helvetica,sans-Serif" font-size="10.00">+ Get()</text>
<text text-anchor="start" x="109.5" y="-349.5" font-family="Helvetica,sans-Serif" font-size="10.00">+ Set()</text>
<text text-anchor="start" x="109.5" y="-338.5" font-family="Helvetica,sans-Serif" font-size="10.00">+ Exists()</text>
</a>
</g>
</g>
<!-- Node4&#45;&gt;Node3 -->
<g id="edge4" class="edge"><title>Node4&#45;&gt;Node3</title>
<path fill="none" stroke="#404040" d="M136.707,-331.239C134.682,-319.813 132.528,-307.657 130.436,-295.855"/>
<polygon fill="none" stroke="#404040" points="130.382,-295.545 125.396,-290.335 128.288,-283.73 133.273,-288.939 130.382,-295.545"/>
<text text-anchor="middle" x="144.5" y="-305" font-family="Helvetica,sans-Serif" font-size="10.00"> &#45;info</text>
</g>
</g>
</svg>
