<?xml version="1.0" encoding="UTF-8" standalone="no"?>
<!DOCTYPE svg PUBLIC "-//W3C//DTD SVG 1.1//EN"
 "http://www.w3.org/Graphics/SVG/1.1/DTD/svg11.dtd">
<!-- Generated by graphviz version 2.38.0 (20140413.2041)
 -->
<!-- Title: ILevelManager Pages: 1 -->
<svg width="103pt" height="182pt"
 viewBox="0.00 0.00 103.00 182.00" xmlns="http://www.w3.org/2000/svg" xmlns:xlink="http://www.w3.org/1999/xlink">
<g id="graph0" class="graph" transform="scale(1 1) rotate(0) translate(4 178)">
<title>ILevelManager</title>
<polygon fill="white" stroke="none" points="-4,4 -4,-178 99,-178 99,4 -4,4"/>
<!-- Node1 -->
<g id="node1" class="node"><title>Node1</title>
<g id="a_node1"><a xlink:title=" ">
<polygon fill="#bfbfbf" stroke="black" points="0,-0.5 0,-79.5 95,-79.5 95,-0.5 0,-0.5"/>
<text text-anchor="middle" x="47.5" y="-67.5" font-family="Helvetica,sans-Serif" font-size="10.00">ILevelManager</text>
<polyline fill="none" stroke="black" points="0,-60.5 95,-60.5 "/>
<text text-anchor="start" x="8" y="-48.5" font-family="Helvetica,sans-Serif" font-size="10.00">+ LevelName</text>
<polyline fill="none" stroke="black" points="0,-41.5 95,-41.5 "/>
<text text-anchor="start" x="8" y="-29.5" font-family="Helvetica,sans-Serif" font-size="10.00">+ LoadLevel()</text>
<text text-anchor="start" x="8" y="-18.5" font-family="Helvetica,sans-Serif" font-size="10.00">+ LoadNextLevel()</text>
<text text-anchor="start" x="8" y="-7.5" font-family="Helvetica,sans-Serif" font-size="10.00">+ ReloadLevel()</text>
</a>
</g>
</g>
<!-- Node2 -->
<g id="node2" class="node"><title>Node2</title>
<g id="a_node2"><a xlink:title=" ">
<polygon fill="white" stroke="#bfbfbf" points="14,-116.5 14,-173.5 81,-173.5 81,-116.5 14,-116.5"/>
<text text-anchor="middle" x="47.5" y="-161.5" font-family="Helvetica,sans-Serif" font-size="10.00">IInitializable</text>
<polyline fill="none" stroke="#bfbfbf" points="14,-154.5 81,-154.5 "/>
<text text-anchor="middle" x="47.5" y="-142.5" font-family="Helvetica,sans-Serif" font-size="10.00"> </text>
<polyline fill="none" stroke="#bfbfbf" points="14,-135.5 81,-135.5 "/>
<text text-anchor="middle" x="47.5" y="-123.5" font-family="Helvetica,sans-Serif" font-size="10.00"> </text>
</a>
</g>
</g>
<!-- Node2&#45;&gt;Node1 -->
<g id="edge1" class="edge"><title>Node2&#45;&gt;Node1</title>
<path fill="none" stroke="midnightblue" d="M47.5,-106.156C47.5,-97.4733 47.5,-88.2318 47.5,-79.5205"/>
<polygon fill="none" stroke="midnightblue" points="44.0001,-106.398 47.5,-116.398 51.0001,-106.398 44.0001,-106.398"/>
</g>
</g>
</svg>
