<?xml version="1.0" encoding="UTF-8" standalone="no"?>
<!DOCTYPE svg PUBLIC "-//W3C//DTD SVG 1.1//EN"
 "http://www.w3.org/Graphics/SVG/1.1/DTD/svg11.dtd">
<!-- Generated by graphviz version 2.38.0 (20140413.2041)
 -->
<!-- Title: Graphical Class Hierarchy Pages: 1 -->
<svg width="243pt" height="180pt"
 viewBox="0.00 0.00 243.00 180.00" xmlns="http://www.w3.org/2000/svg" xmlns:xlink="http://www.w3.org/1999/xlink">
<g id="graph0" class="graph" transform="scale(1 1) rotate(0) translate(4 176)">
<title>Graphical Class Hierarchy</title>
<polygon fill="white" stroke="none" points="-4,4 -4,-176 239,-176 239,4 -4,4"/>
<!-- Node6 -->
<g id="node1" class="node"><title>Node6</title>
<g id="a_node1"><a xlink:title=" ">
<polygon fill="white" stroke="#bfbfbf" points="0,-76.5 0,-95.5 83,-95.5 83,-76.5 0,-76.5"/>
<text text-anchor="middle" x="41.5" y="-83.5" font-family="Helvetica,sans-Serif" font-size="10.00">MonoBehaviour</text>
</a>
</g>
</g>
<!-- Node0 -->
<g id="node2" class="node"><title>Node0</title>
<g id="a_node2"><a xlink:href="da/d03/class_destroy_after_x.html" target="_top" xlink:title=" ">
<polygon fill="white" stroke="black" points="139,-152.5 139,-171.5 215,-171.5 215,-152.5 139,-152.5"/>
<text text-anchor="middle" x="177" y="-159.5" font-family="Helvetica,sans-Serif" font-size="10.00">DestroyAfterX</text>
</a>
</g>
</g>
<!-- Node6&#45;&gt;Node0 -->
<g id="edge1" class="edge"><title>Node6&#45;&gt;Node0</title>
<path fill="none" stroke="midnightblue" d="M61.028,-102.471C75.8593,-114.972 97.6433,-131.853 119,-143 126.028,-146.668 133.907,-149.833 141.512,-152.47"/>
<polygon fill="midnightblue" stroke="midnightblue" points="63.0169,-99.5651 53.1548,-95.6936 58.4501,-104.87 63.0169,-99.5651"/>
</g>
<!-- Node8 -->
<g id="node3" class="node"><title>Node8</title>
<g id="a_node3"><a xlink:href="db/d1b/class_dont_destroy_on_load.html" target="_top" xlink:title=" ">
<polygon fill="white" stroke="black" points="125,-114.5 125,-133.5 229,-133.5 229,-114.5 125,-114.5"/>
<text text-anchor="middle" x="177" y="-121.5" font-family="Helvetica,sans-Serif" font-size="10.00">DontDestroyOnLoad</text>
</a>
</g>
</g>
<!-- Node6&#45;&gt;Node8 -->
<g id="edge2" class="edge"><title>Node6&#45;&gt;Node8</title>
<path fill="none" stroke="midnightblue" d="M86.03,-98.3906C104.312,-103.594 125.249,-109.554 142.323,-114.414"/>
<polygon fill="midnightblue" stroke="midnightblue" points="86.7639,-94.9605 76.1877,-95.589 84.8474,-101.693 86.7639,-94.9605"/>
</g>
<!-- Node9 -->
<g id="node4" class="node"><title>Node9</title>
<g id="a_node4"><a xlink:href="d8/d49/class_info_object.html" target="_top" xlink:title=" ">
<polygon fill="white" stroke="black" points="147,-76.5 147,-95.5 207,-95.5 207,-76.5 147,-76.5"/>
<text text-anchor="middle" x="177" y="-83.5" font-family="Helvetica,sans-Serif" font-size="10.00">InfoObject</text>
</a>
</g>
</g>
<!-- Node6&#45;&gt;Node9 -->
<g id="edge3" class="edge"><title>Node6&#45;&gt;Node9</title>
<path fill="none" stroke="midnightblue" d="M93.413,-86C111.51,-86 131.254,-86 146.899,-86"/>
<polygon fill="midnightblue" stroke="midnightblue" points="93.2798,-82.5001 83.2798,-86 93.2798,-89.5001 93.2798,-82.5001"/>
</g>
<!-- Node10 -->
<g id="node5" class="node"><title>Node10</title>
<g id="a_node5"><a xlink:href="da/d27/class_info_object_control.html" target="_top" xlink:title=" ">
<polygon fill="white" stroke="black" points="131.5,-38.5 131.5,-57.5 222.5,-57.5 222.5,-38.5 131.5,-38.5"/>
<text text-anchor="middle" x="177" y="-45.5" font-family="Helvetica,sans-Serif" font-size="10.00">InfoObjectControl</text>
</a>
</g>
</g>
<!-- Node6&#45;&gt;Node10 -->
<g id="edge4" class="edge"><title>Node6&#45;&gt;Node10</title>
<path fill="none" stroke="midnightblue" d="M86.03,-73.6094C104.312,-68.4055 125.249,-62.4459 142.323,-57.5859"/>
<polygon fill="midnightblue" stroke="midnightblue" points="84.8474,-70.3069 76.1877,-76.411 86.7639,-77.0395 84.8474,-70.3069"/>
</g>
<!-- Node11 -->
<g id="node6" class="node"><title>Node11</title>
<g id="a_node6"><a xlink:href="de/d0a/class_initialize_persistent_data.html" target="_top" xlink:title=" ">
<polygon fill="white" stroke="black" points="119,-0.5 119,-19.5 235,-19.5 235,-0.5 119,-0.5"/>
<text text-anchor="middle" x="177" y="-7.5" font-family="Helvetica,sans-Serif" font-size="10.00">InitializePersistentData</text>
</a>
</g>
</g>
<!-- Node6&#45;&gt;Node11 -->
<g id="edge5" class="edge"><title>Node6&#45;&gt;Node11</title>
<path fill="none" stroke="midnightblue" d="M61.028,-69.5288C75.8593,-57.0282 97.6433,-40.1471 119,-29 126.028,-25.3318 133.907,-22.167 141.512,-19.53"/>
<polygon fill="midnightblue" stroke="midnightblue" points="58.4501,-67.1297 53.1548,-76.3064 63.0169,-72.4349 58.4501,-67.1297"/>
</g>
</g>
</svg>
