<?xml version="1.0" encoding="UTF-8" standalone="no"?>
<!DOCTYPE svg PUBLIC "-//W3C//DTD SVG 1.1//EN"
 "http://www.w3.org/Graphics/SVG/1.1/DTD/svg11.dtd">
<!-- Generated by graphviz version 2.38.0 (20140413.2041)
 -->
<!-- Title: Graphical Class Hierarchy Pages: 1 -->
<svg width="301pt" height="28pt"
 viewBox="0.00 0.00 301.00 28.00" xmlns="http://www.w3.org/2000/svg" xmlns:xlink="http://www.w3.org/1999/xlink">
<g id="graph0" class="graph" transform="scale(1 1) rotate(0) translate(4 24)">
<title>Graphical Class Hierarchy</title>
<polygon fill="white" stroke="none" points="-4,4 -4,-24 297,-24 297,4 -4,4"/>
<!-- Node13 -->
<g id="node1" class="node"><title>Node13</title>
<g id="a_node1"><a xlink:title=" ">
<polygon fill="white" stroke="#bfbfbf" points="0,-0.5 0,-19.5 67,-19.5 67,-0.5 0,-0.5"/>
<text text-anchor="middle" x="33.5" y="-7.5" font-family="Helvetica,sans-Serif" font-size="10.00">IInitializable</text>
</a>
</g>
</g>
<!-- Node0 -->
<g id="node2" class="node"><title>Node0</title>
<g id="a_node2"><a xlink:href="da/d25/interface_i_level_manager.html" target="_top" xlink:title=" ">
<polygon fill="white" stroke="black" points="103,-0.5 103,-19.5 181,-19.5 181,-0.5 103,-0.5"/>
<text text-anchor="middle" x="142" y="-7.5" font-family="Helvetica,sans-Serif" font-size="10.00">ILevelManager</text>
</a>
</g>
</g>
<!-- Node13&#45;&gt;Node0 -->
<g id="edge1" class="edge"><title>Node13&#45;&gt;Node0</title>
<path fill="none" stroke="midnightblue" d="M77.0991,-10C85.5536,-10 94.3815,-10 102.683,-10"/>
<polygon fill="midnightblue" stroke="midnightblue" points="77.0322,-6.5001 67.0322,-10 77.0322,-13.5001 77.0322,-6.5001"/>
</g>
<!-- Node1 -->
<g id="node3" class="node"><title>Node1</title>
<g id="a_node3"><a xlink:href="d6/d06/class_level_manager.html" target="_top" xlink:title=" ">
<polygon fill="white" stroke="black" points="217,-0.5 217,-19.5 293,-19.5 293,-0.5 217,-0.5"/>
<text text-anchor="middle" x="255" y="-7.5" font-family="Helvetica,sans-Serif" font-size="10.00">LevelManager</text>
</a>
</g>
</g>
<!-- Node0&#45;&gt;Node1 -->
<g id="edge2" class="edge"><title>Node0&#45;&gt;Node1</title>
<path fill="none" stroke="midnightblue" d="M191.429,-10C199.952,-10 208.702,-10 216.855,-10"/>
<polygon fill="midnightblue" stroke="midnightblue" points="191.2,-6.5001 181.2,-10 191.2,-13.5001 191.2,-6.5001"/>
</g>
</g>
</svg>
